<?xml version="1.0" encoding="utf-8"?>
<!-- Generator: Adobe Illustrator 27.5.0, SVG Export Plug-In . SVG Version: 6.00 Build 0)  -->
<svg version="1.1" id="Layer_1" xmlns="http://www.w3.org/2000/svg" xmlns:xlink="http://www.w3.org/1999/xlink" x="0px" y="0px"
	 viewBox="0 0 2125.984 2125.984" style="enable-background:new 0 0 2125.984 2125.984;" xml:space="preserve">
<rect style="fill:#FFFFFF;" width="2125.984" height="2125.984"/>
<g>
	<text transform="matrix(1 0 0 1 910.7516 1925.1538)" style="font-family:'CinzelRoman-Bold'; font-size:110px;">Adnan</text>
</g>
<g>
	<g>
		<path d="M947.816,1093.112c-0.004-0.327,0.696-2.358,2.102-6.089c1.406-3.74,3.13-8.121,5.161-13.164
			c2.04-5.034,4.227-10.4,6.577-16.089c2.353-5.683,4.628-11.051,6.823-16.095c2.201-5.036,4.002-9.099,5.416-12.194
			c1.414-3.089,2.288-4.637,2.606-4.641c5.844,1.863,12.595,4.523,20.232,7.977c7.638,3.461,14.961,7.244,21.971,11.349
			c7.004,4.115,13.278,8.072,18.829,11.878c5.545,3.806,9.306,6.991,11.279,9.55c-4.704,11.057-9.1,21.293-13.173,30.726
			c-3.454,8.122-6.99,16.013-10.599,23.661c-3.621,7.64-6.221,12.766-7.799,15.378c-3.924-3.182-8.823-6.915-14.698-11.202
			c-5.875-4.287-12.07-8.412-18.593-12.363c-6.514-3.963-12.954-7.673-19.301-11.145
			C958.296,1097.172,952.686,1094.664,947.816,1093.112z"/>
		<path d="M805.518,853.687c0.11-0.755,0.376-3.85,0.761-9.283c0.404-5.409,0.686-11.444,0.857-18.076
			c0.19-6.614,0.598-13.417,1.199-20.382c0.628-6.954,0.831-12.392,0.613-16.35c8.648,5.182,18.744,15.257,30.255,30.235
			c11.531,14.995,21.9,32.536,31.108,52.661s15.65,41.815,19.32,65.047c3.671,23.232,2.289,46.135-4.106,68.69
			c-0.222,1.531-1.131,3.747-2.727,6.649c-1.594,2.888-2.343,1.223-2.207-5.017c-1.804-25.324-5.725-46.832-11.762-64.537
			c-6.035-17.719-12.907-32.404-20.61-44.091c-7.695-11.693-15.208-20.6-22.532-26.765c-7.327-6.143-12.727-10.655-16.238-13.514
			c-1.531-0.222-2.396-0.935-2.624-2.143C806.611,855.607,806.181,854.576,805.518,853.687z"/>
		<path d="M1145.325,998.159c7.426-4.103,18.674-9.542,33.729-16.331c15.061-6.789,31.678-14.208,49.852-22.23
			c18.19-8.022,36.912-16.174,56.218-24.435c19.295-8.256,215.736-93.201,231.918-100.224c16.187-7.012,29.949-13.029,41.318-18.055
			c11.358-5.011,18.174-8.022,20.448-9.035c5.125-2.529,8.214-3.362,9.298-2.476c1.063,0.885,0.937,3.527-0.377,7.906
			c-2.596,7.67-4.955,13.401-7.074,17.184c-2.135,3.792-3.778,6.216-4.934,7.272c-1.172,1.065-7.584,4.367-19.245,9.926
			c-11.671,5.569-26.314,12.238-43.914,20.016c-17.61,7.789-215.328,93.507-235.781,102.542
			c-20.448,9.035-40.333,17.956-59.666,26.773c-19.316,8.802-36.536,17.026-51.641,24.648c-15.09,7.622-25.796,13.498-32.119,17.659
			c0.874-6.636,2.01-12.978,3.409-19.027c1.356-4.94,2.684-9.61,3.997-13.989C1142.097,1001.889,1143.603,999.182,1145.325,998.159z
			"/>
		<path d="M1303.102,835.61c1.02-2.268,2.099-3.56,3.219-3.833c1.12-0.272,1.588,0.891,1.435,3.463
			c0.563,12.066-2.068,24.014-7.884,35.85c-5.839,11.832-13.941,19.025-24.411,21.572c-10.442,2.54-19.352,0.895-26.703-4.945
			c-7.35-5.836-11.795-15.181-13.338-28.014c-2.102-8.642-2.341-18.614-0.759-29.935c1.606-11.317,3.998-22.572,7.202-33.778
			c3.215-11.194,6.675-21.318,10.406-30.359c3.74-9.034,6.736-15.367,9.031-18.975c4.282-5.101,7.217-8.484,8.799-10.146
			c1.565-1.643,0.941,1.429-1.906,9.231c-4.499,10.758-8.628,23.832-12.398,39.235c-3.762,15.405-5.633,31.237-5.649,47.504
			c0.212,10.622,3.434,18.992,9.664,25.1c6.237,6.107,12.588,7.864,19.08,5.27c6.6-2.12,11.762-6.044,15.518-11.78
			C1298.142,845.327,1301.047,840.175,1303.102,835.61z"/>
		<path d="M666.465,969.26c1.02-2.268,2.099-3.56,3.219-3.833s1.588,0.891,1.435,3.463c0.563,12.066-2.068,24.014-7.884,35.85
			c-5.839,11.832-13.941,19.025-24.411,21.572c-10.442,2.54-19.352,0.896-26.703-4.945c-7.35-5.836-11.795-15.181-13.338-28.014
			c-2.102-8.642-2.341-18.614-0.759-29.935c1.606-11.317,3.998-22.572,7.202-33.778c3.215-11.194,6.675-21.318,10.406-30.359
			c3.74-9.034,6.736-15.367,9.031-18.974c4.282-5.101,7.217-8.484,8.799-10.146c1.565-1.643,0.941,1.429-1.906,9.231
			c-4.499,10.758-8.628,23.832-12.398,39.235c-3.762,15.405-5.633,31.237-5.649,47.504c0.212,10.622,3.434,18.992,9.664,25.1
			c6.237,6.107,12.587,7.864,19.08,5.27c6.601-2.12,11.762-6.044,15.518-11.78C661.505,978.976,664.41,973.824,666.465,969.26z"/>
		<path d="M1614.784,1315.418c-7.615,13.493-20.158,23.151-33.607,30.398c-14.184,7.644-29.681,13.674-45.188,17.999
			c-14.682,4.095-33.048,7.475-47.795,1.957c-2.955-1.106-5.997-2.896-7.004-5.886c-1.13-3.356,0.687-6.956,2.714-9.86
			c7.125-10.211,17.985-17.451,27.471-25.302c10.178-8.425,20.347-16.862,30.674-25.104c2.935-2.343,4.244-9.359,5.34-12.854
			c0.729-1.97,1.363-3.974,1.979-5.913c0.576-1.81,2.045-4.745,1.75-6.589c-0.02-0.122,0.317-2.54-0.449-1.371
			c-5.445,8.309-13.272,15.131-22.116,19.621c-8.723,4.428-19.524,6.99-29.236,4.651c-1.809-0.435-3.555-1.157-5.099-2.202
			c-1.506-1.02-2.887-2.492-3.86-4.027c-1.566-2.47-1.615-5.798,0.57-7.949c1.205-1.186,2.854-1.803,4.49-2.232
			c3.342-0.877,7.637-1.523,10.988-0.389c2.804,0.949,4.984,3.488,5.187,6.484c0.134,1.975-0.541,3.884-0.817,5.818
			c-0.13,0.909-0.268,1.823-0.307,2.742c-0.014,0.32-0.142,1.399,0.29,1.55c1.192,0.417,4.719-10.036,4.827-10.36
			c2.206-6.582,5.967-14.956,3.61-22c-2.609-7.801-11.244-6.577-17.721-4.749c-7.348,2.074-11.037,7.357-14.055,14.021
			c-3.693,8.153-6.987,17.218-8.467,26.076c-2.281,13.645,8.176,18.697,19.314,19.07c-0.183,0.151-0.37,0.299-0.553,0.45
			c-14.827,12.252-24.53,28.704-27.348,48.016c-1.262,8.649,1.618,16.441,10.199,19.711c9.055,3.45,20.086,3.028,29.533,1.876
			c19.484-2.376,38.824-9.77,56.462-18.181c17.39-8.293,33.195-19.488,42.826-36.552c2.52-4.465,4.132-9.641,5.521-14.554
			C1615.211,1318.705,1616.89,1311.687,1614.784,1315.418z"/>
		<path d="M987.561,956.275c1.783,2.248,4.103,4.251,6.564,5.726c2.401,1.439,5.276,2.098,7.964,3.04
			c5.513,1.931,10.839,1.923,15.897-1.473c0.583-0.392,1.92-0.525,2.348-0.146c2.974,2.635,6.115,5.18,8.615,8.234
			c8.349,10.2,11.721,22.351,13.23,35.193c0.607,5.169,1.281,10.33,3.23,15.258c2.424,6.131,7.095,7.879,12.475,4.162
			c2.687-1.857,4.1-4.764,5.297-7.816c2.184-5.572,3.856-11.251,4.856-17.156c1.512-8.932,1.495-17.915,0.85-26.886
			c-0.693-9.635-1.37-19.3-2.783-28.843c-1.056-7.13-3.235-14.097-4.987-21.118c-0.658-2.637-1.462-5.242-2.302-7.829
			c-2.483-7.647-5.099-15.251-7.502-22.922c-1.789-5.711-3.674-11.429-4.869-17.276c-0.946-4.63,2.695-9.832,8.701-8.624
			c7.187,1.445,12.164,5.933,16.009,11.912c2.084,3.239,3.674,6.679,7.573,8.598c4.767,2.346,6.728,0.265,7.604-3.583
			c1.304-5.73,1.627-11.58,1.061-17.442c-0.484-5.008-1.725-9.829-3.69-14.482c-2.107-4.989-4.861-9.573-8.873-13.194
			c-5.701-5.145-12.408-8.26-20.23-7.648c-2.8,0.219-5.964,1.13-8.144,2.796c-4.213,3.219-7.211,7.627-9.614,12.456
			c-3.028,6.084-5.038,12.444-6.057,19.122c-0.511,3.351-0.964,6.744-1.019,10.124c-0.067,4.098-0.36,8.379,0.651,12.267
			c1.819,6.992,4.4,13.8,6.913,20.592c3.267,8.83,6.947,17.51,10.139,26.366c3.548,9.846,6.504,19.892,7.81,30.319
			c0.568,4.537,0.92,9.136-0.234,14.068c-0.636-1.557-1.14-2.753-1.615-3.96c-3.584-9.098-6.913-18.302-12.486-26.477
			c-4.778-7.009-9.498-14.038-15.871-19.765c-4.688-4.212-9.559-8.285-15.477-10.502c-3.781-1.416-7.952-1.987-12.002-2.405
			c-2.023-0.209-4.514,0.239-6.19,1.323c-4.102,2.654-6.322,6.809-8.043,11.389c-1.638,4.359-1.981,8.699-1.274,13.162
			C982.856,947.716,984.482,952.392,987.561,956.275z"/>
		<path d="M1498.573,1167.192c-16.762-1.934-32.669-3.399-48.458-5.677c-23.359-3.371-36.577-20.037-35.705-43.689
			c0.871-23.626,8.484-45.506,21.806-64.237c11.955-16.809,32.061-22.782,51.64-26.827c10.077-2.082,20.918-3.026,31.061-1.73
			c25.651,3.276,44.714,15.418,50.673,42.829c0.794,3.653,4.214,6.736,6.413,10.076c19.268-20.75,37.609-42.222,57.943-61.603
			c8.855-8.441,16.78-21.932,36.051-18.816c-3.726,19.792-6.723,38.8-11.339,57.406c-0.843,3.4-9.253,4.271-12.52,7.826
			c-20.848,22.679-42.569,44.775-61.059,69.284c-6.621,8.776-5.254,23.689-7.21,35.852c-2.741,17.037-5.328,34.098-8.008,51.146
			c-1.586,10.094-0.649,37.237-11.122,42.62c-9.094-11.293-6.369-29.826-5.67-43.238c0.748-14.359,2.206-29.015-1.979-43.021
			c-45.674,51.262-87.997,103.694-150.675,134.979c-32.681,16.313-57.051,6.783-71.686-26.055
			c-7.388-16.578-10.582-35.025-16.175-54.385c-2.277,4.393-4.661,8.317-6.426,12.504c-14.928,35.406-34.673,71.669-65.46,95.763
			c-35.948,28.133-81.4,27.525-124.958,25.808c-19.652-0.775-36.942-4.342-56.589-5.223c-18.21-0.816-49.912-23.101-17.824-21.306
			c113.965,6.377,210.549-53.989,255.768-158.369c3.944-9.104,7.339-18.523,12.166-27.136c2.401-4.284,9.072-10.698,11.028-9.835
			c5.214,2.299,11.527,7.394,12.749,12.494c4.176,17.415,6.005,35.378,9.442,52.993c1.612,8.26,4.336,16.408,7.453,24.25
			c8.27,20.802,22.525,26.817,47.425,16.475C1422.649,1237.829,1481.606,1196.145,1498.573,1167.192z M1452.14,1094.309
			c16.158,10.602,52.68,21.143,77.606,7.979C1511.03,1073.908,1476.044,1074.455,1452.14,1094.309z"/>
		<path d="M942.792,1273.707c38.088,0,75.979-7.327,111.814-20.064c17.992-6.395,35.485-14.169,52.354-23.112
			c13.856-7.345,31.492-15.142,43.395-25.21c7.561-6.396,13.125-15.992,12.135-25.845c-0.825-8.217-5.915-15.27-9.347-22.781
			c-8.888-19.452-6.075-43.732,7.026-60.637c1.531-1.975,3.371-3.964,5.821-4.456c3.621-0.727,6.947,2.041,9.438,4.767
			c27.263,29.831,28.398,77.364,10.482,113.587c-17.916,36.224-51.531,62.425-87.373,81.093
			c-47.11,24.536-99.709,38.105-152.749,40.961c-51.661,2.782-106.502-5.641-146.968-37.876
			c-45.392-36.159-54.849-90.551-61.838-144.829c-8.822-68.509-15.956-137.235-21.392-206.096
			c-3.64-46.108-14.288-75.106-38.422-113.429c-2.916-4.631-6.175-11.371-4.88-15.934c4.057-14.296,7.999-49.305,29.005-44.608
			c24.673,5.517,35.24,57.009,38.987,76.541c21.242,110.725,12.237,226.44,42.18,335.135c6.649,24.137,16.766,50.402,36.495,66.944
			c22.797,19.114,54.036,20.765,82.099,25.478C913.28,1275.389,926.132,1273.707,942.792,1273.707z"/>
		<path d="M680.885,1129.999c-19.358-69.229-102.992-50.05-146.707-21.357c-25.557,16.776-34.203,39.551-34.686,67.697
			c-0.092,5.343,1.216,10.709,1.879,16.065c1.124,4.656,3.18,10.329,5.765,11.875c3.262-5.618,7.582-19.357,11.933-23.944
			c23.051-24.293,50.678-37.849,85.164-36.724c25.056,0.819,41.158,12.871,50.002,35.323c1.801,4.573,2.261,11.321,0.193,15.512
			c-16.633,33.705-39.878,60.806-77.711,71.436c-23.816,6.689-44.981,4.133-65.255-13.326
			c-27.602-23.768-34.48-81.058-17.14-118.987c34.36-75.158,64.994-152.007,89.364-231.008c0.42-1.362,0.838-2.842,0.357-4.184
			c-0.503-1.404-1.857-2.292-3.133-3.065c-15.891-9.625-33.123-17.455-50.776-23.233c-7.874-2.577-14.792-4.469-20.733-5.675
			c-0.312,0.038-1.005,1.654-2.064,4.84c-1.058,3.192-2.393,7.378-4.016,12.56c-1.617,5.193-3.279,10.708-4.983,16.546
			c-1.7,5.84-3.274,11.348-4.741,16.511c-1.457,5.171-2.682,9.661-3.662,13.486c-0.982,3.815-1.454,5.886-1.415,6.207
			c4.95,1.004,10.731,2.868,17.344,5.606c6.608,2.732,13.333,5.688,20.158,8.885c4.555,2.123,8.774,4.472,13.062,6.774
			c-3.712,17.646-6.761,35.028-12.274,51.556c-14.044,42.105-36.606,81.612-52.326,123.31c-11.638,30.871-20.145,63.6-18.221,96.536
			c1.924,32.937,15.4,66.27,41.275,86.738c91.842,72.652,166.618-63.333,182.212-136.172
			C683.259,1163.391,685.4,1146.148,680.885,1129.999z"/>
	</g>
</g>
</svg>
